<svg width="44" height="34" viewBox="0 0 44 34" fill="none" xmlns="http://www.w3.org/2000/svg" xmlns:xlink="http://www.w3.org/1999/xlink">
<path d="M41.937,5.035C41.76,4.344 41.422,3.704 40.949,3.17C40.477,2.635 39.884,2.22 39.22,1.96C32.792,-0.522 22.562,-0.5 22,-0.5C21.438,-0.5 11.207,-0.522 4.78,1.96C4.116,2.22 3.523,2.635 3.051,3.17C2.578,3.704 2.24,4.344 2.063,5.035C1.578,6.906 1,10.326 1,16C1,21.674 1.578,25.094 2.063,26.965C2.24,27.657 2.578,28.296 3.05,28.831C3.523,29.366 4.116,29.781 4.78,30.042C10.938,32.418 20.575,32.5 21.876,32.5L22.124,32.5C23.425,32.5 33.068,32.418 39.22,30.042C39.884,29.781 40.477,29.366 40.95,28.831C41.422,28.296 41.76,27.657 41.937,26.965C42.423,25.09 43,21.674 43,16C43,10.326 42.423,6.906 41.937,5.035ZM28.111,17.222L20.611,22.473C20.386,22.63 20.123,22.722 19.85,22.741C19.577,22.759 19.303,22.702 19.06,22.576C18.817,22.45 18.613,22.26 18.47,22.026C18.327,21.792 18.251,21.524 18.25,21.25L18.25,10.75C18.25,10.476 18.325,10.206 18.468,9.972C18.61,9.737 18.814,9.546 19.058,9.42C19.301,9.293 19.575,9.236 19.848,9.254C20.122,9.272 20.386,9.364 20.611,9.522L28.111,14.772C28.308,14.91 28.469,15.094 28.58,15.308C28.691,15.522 28.749,15.759 28.749,16C28.749,16.241 28.691,16.478 28.58,16.692C28.469,16.906 28.308,17.09 28.111,17.228L28.111,17.222Z" fill="#FFFFFF"/>
</svg>
