<svg width="34" height="36" viewBox="0 0 34 36" fill="none" xmlns="http://www.w3.org/2000/svg" xmlns:xlink="http://www.w3.org/1999/xlink">
<path d="M32.312,35.222C32.183,35.457 31.993,35.653 31.763,35.79C31.532,35.927 31.268,36 31,36L22,36C21.747,36 21.499,35.936 21.278,35.815C21.057,35.693 20.87,35.517 20.734,35.304L13.143,23.374L2.11,35.509C1.841,35.798 1.469,35.969 1.075,35.985C0.68,36.002 0.295,35.862 0.003,35.597C-0.289,35.331 -0.465,34.961 -0.486,34.567C-0.507,34.173 -0.372,33.787 -0.11,33.491L11.472,20.741L-0.266,2.306C-0.41,2.079 -0.491,1.818 -0.5,1.549C-0.509,1.28 -0.445,1.014 -0.316,0.778C-0.186,0.543 0.004,0.346 0.236,0.209C0.467,0.072 0.731,0 1,0L10,0C10.252,0 10.501,0.064 10.722,0.185C10.943,0.307 11.13,0.483 11.266,0.696L18.858,12.626L29.89,0.491C30.159,0.202 30.531,0.031 30.925,0.015C31.32,-0.002 31.705,0.138 31.997,0.403C32.289,0.669 32.464,1.039 32.486,1.433C32.507,1.827 32.372,2.213 32.11,2.509L20.528,15.249L32.266,33.696C32.409,33.923 32.489,34.184 32.498,34.452C32.506,34.721 32.442,34.987 32.312,35.222Z" fill="#FFFFFF"/>
</svg>
