<svg width="40" height="40" viewBox="0 0 40 40" fill="none" xmlns="http://www.w3.org/2000/svg" xmlns:xlink="http://www.w3.org/1999/xlink">
<path d="M29,0.5L11,0.5C8.216,0.503 5.547,1.61 3.579,3.579C1.61,5.547 0.503,8.216 0.5,11L0.5,29C0.503,31.784 1.61,34.453 3.579,36.421C5.547,38.39 8.216,39.497 11,39.5L29,39.5C31.784,39.497 34.453,38.39 36.421,36.421C38.39,34.453 39.497,31.784 39.5,29L39.5,11C39.497,8.216 38.39,5.547 36.421,3.579C34.453,1.61 31.784,0.503 29,0.5ZM20,29C18.22,29 16.48,28.472 15,27.483C13.52,26.494 12.366,25.089 11.685,23.444C11.004,21.8 10.826,19.99 11.173,18.244C11.52,16.498 12.377,14.895 13.636,13.636C14.895,12.377 16.498,11.52 18.244,11.173C19.99,10.826 21.8,11.004 23.444,11.685C25.089,12.366 26.494,13.52 27.483,15C28.472,16.48 29,18.22 29,20C28.998,22.386 28.049,24.674 26.361,26.361C24.674,28.049 22.386,28.998 20,29ZM31.25,11C30.805,11 30.37,10.868 30,10.621C29.63,10.374 29.342,10.022 29.171,9.611C29.001,9.2 28.956,8.747 29.043,8.311C29.13,7.875 29.344,7.474 29.659,7.159C29.974,6.844 30.375,6.63 30.811,6.543C31.248,6.456 31.7,6.501 32.111,6.671C32.522,6.842 32.874,7.13 33.121,7.5C33.368,7.87 33.5,8.305 33.5,8.75C33.5,9.347 33.263,9.919 32.841,10.341C32.419,10.763 31.847,11 31.25,11ZM26,20C26,21.187 25.648,22.347 24.989,23.333C24.33,24.32 23.392,25.089 22.296,25.543C21.2,25.997 19.993,26.116 18.829,25.885C17.666,25.653 16.596,25.082 15.757,24.243C14.918,23.404 14.347,22.334 14.115,21.171C13.884,20.007 14.003,18.8 14.457,17.704C14.911,16.608 15.68,15.67 16.667,15.011C17.653,14.352 18.813,14 20,14C21.591,14 23.117,14.632 24.243,15.757C25.368,16.883 26,18.409 26,20Z" fill="#FFFFFF"/>
</svg>
